<svg xmlns="http://www.w3.org/2000/svg" viewBox="0 0 320 96" fill="none">
  <g>
    <path d="M44 6 L76 16 L76 48 C76 66 62 82 44 90 C26 82 12 66 12 48 L12 16 Z" fill="#0a0a0a" stroke="#0a0a0a" stroke-width="2" stroke-linejoin="round"/>
    <path d="M28 30 C28 28 30 26 33 28 L42 34 L48 28 C50 26 53 26 55 28 L61 34 C63 36 63 39 61 41 L57 45 C59 48 61 52 61 57 C61 66 54 72 46 72 L40 72 L40 64 L46 64 C49 64 52 62 52 58 L52 56 L44 56 C40 56 37 53 37 49 L37 46 L33 46 C30 46 28 44 28 41 Z M46 38 L44 40 L46 42 L48 40 Z" fill="#ffffff"/>
  </g>
  <g fill="#0a0a0a">
    <text x="92" y="66" font-family="Arial Black, Helvetica, sans-serif" font-weight="900" font-size="58" letter-spacing="-3">derby</text>
    <text x="92" y="88" font-family="Arial, Helvetica, sans-serif" font-weight="500" font-size="22" letter-spacing="-0.5">digital.</text>
  </g>
</svg>
